<svg width="307" height="70" viewBox="0 0 307 70" fill="none" xmlns="http://www.w3.org/2000/svg">
<path d="M0.00699608 46.4974H0L0.00699608 45.9374H12.0018C12.0018 50.4944 15.0748 54.7312 19.6765 54.7312C24.2764 54.7312 27.3494 50.5207 27.3494 45.9374L27.3424 20.2474H39.3459L39.3529 46.4974H39.3459C39.0486 57.1059 30.349 65.625 19.6765 65.625C9.00395 65.625 0.304329 57.1059 0.00699608 46.4974Z" fill="#FF8B8B"/>
<path d="M19.6765 39.375C30.5435 39.375 39.3529 30.5606 39.3529 19.6875C39.3529 8.81439 30.5435 0 19.6765 0C8.80946 0 0 8.81439 0 19.6875C0 30.5606 8.80946 39.375 19.6765 39.375Z" fill="#0BBCD6"/>
<path d="M75.563 33.6052C72.002 37.17 67.0837 39.375 61.653 39.375C50.7916 39.375 41.9766 30.555 41.9766 19.6875C41.9766 8.82 50.7916 0 61.653 0C67.0837 0 72.002 2.205 75.563 5.76975L61.653 19.6875L75.563 33.6052ZM109.669 33.6052C106.108 37.17 101.19 39.375 95.7589 39.375C84.8975 39.375 76.0824 30.555 76.0824 19.6875C76.0824 8.82 84.8975 0 95.7589 0C101.19 0 106.108 2.205 109.669 5.76975L95.7589 19.6875L109.669 33.6052Z" fill="#F0CF61"/>
<path d="M201.06 0L220.737 39.375H181.384L201.06 0ZM113.966 0H127.084V39.375H113.966V0Z" fill="#61BFAD"/>
<path d="M223.36 0L249.596 39.375H223.36V0Z" fill="#F0CF61"/>
<path d="M262.713 0L236.478 39.375H262.713V0ZM133.643 0H152.007L152.1 0.09275L132.516 19.6875L152.1 39.2822L152.007 39.375H133.643L113.966 19.6875L133.643 0Z" fill="#FF8B8B"/>
<path d="M285.571 0C296.433 0 305.248 8.82 305.248 19.6875C305.248 30.555 296.433 39.375 285.571 39.375H265.895V0H285.571ZM172.112 24.325L181.382 33.6052C177.823 37.17 172.899 39.375 167.474 39.375C156.612 39.375 147.797 30.555 147.797 19.6875C147.797 8.82 156.612 0 167.474 0C172.903 0 177.823 2.205 181.384 5.76975L172.11 15.05C170.921 13.86 169.284 13.125 167.476 13.125C163.855 13.125 160.917 16.065 160.917 19.6875C160.917 23.31 163.855 26.25 167.476 26.25C169.284 26.25 170.921 25.515 172.11 24.325H172.112Z" fill="#0BBCD6"/>
<path d="M265.895 0H279.012V65.625H265.895V0Z" fill="#61BFAD"/>
<path d="M79.7255 63.3326C79.883 66.4651 82.4995 68.4531 86.4593 68.4531C90.6394 68.4531 93.2367 66.3601 93.2367 62.9983C93.2367 60.3558 91.7675 58.9033 88.2625 58.1158L86.2774 57.6608C84.1261 57.1708 83.2516 56.4883 83.2516 55.3158C83.2516 53.8458 84.5633 52.8833 86.5397 52.8833C88.4287 52.8833 89.7649 53.8283 89.9853 55.3508H92.9324C92.7872 52.3811 90.1689 50.3003 86.5485 50.3003C82.6831 50.3003 80.1296 52.3828 80.1296 55.5153C80.1296 58.0878 81.5987 59.6453 84.7295 60.3488L86.9682 60.8598C89.1772 61.3761 90.1217 62.1023 90.1217 63.3501C90.1217 64.7991 88.6525 65.8403 86.6237 65.8403C84.4374 65.8403 82.9053 64.8428 82.7146 63.3028H79.7063L79.7255 63.3326ZM96.7033 50.7606H99.7885V68.0226H96.7033V50.7606ZM107.022 68.0226V56.2748H107.225L115.691 68.0226H118.356V50.7606H115.392V62.4961H115.187L106.722 50.7606H104.046V68.0226H107.019H107.022ZM137.546 61.1101V58.9401H130.384V61.3551H134.533L134.515 61.7156C134.463 64.0956 132.661 65.6986 130.038 65.6986C126.96 65.6986 125.036 63.2836 125.036 59.3583C125.036 55.4733 126.925 53.0758 129.933 53.0758C132.137 53.0758 133.679 54.1608 134.305 56.1208H137.373C136.821 52.5858 133.903 50.3108 129.922 50.3108C125.008 50.3108 121.863 53.8283 121.863 59.3583C121.863 64.9583 124.969 68.4233 129.966 68.4233C134.566 68.4233 137.51 65.5638 137.51 61.0786L137.546 61.1101ZM152.252 68.0226H155.563L149.431 50.7606H145.963L139.841 68.0226H142.961L144.445 63.6091H150.793L152.252 68.0226ZM147.53 54.0506H147.733L150.076 61.1678H145.162L147.53 54.0506ZM158.531 50.7606V68.0226H161.609V62.3648H165.352C168.843 62.3648 171.281 60.0198 171.281 56.5986C171.281 53.1161 168.927 50.7606 165.483 50.7606H158.531ZM161.613 53.3436H164.674C166.898 53.3436 168.154 54.4811 168.154 56.5986C168.154 58.6566 166.86 59.8046 164.663 59.8046H161.613V53.3436ZM182.129 50.3301C177.121 50.3301 173.952 53.8126 173.952 59.3863C173.952 64.9601 177.06 68.4513 182.131 68.4513C187.164 68.4513 190.272 64.9478 190.272 59.3863C190.272 53.8108 187.142 50.3301 182.131 50.3301H182.129ZM182.129 53.0688C185.19 53.0688 187.114 55.5223 187.114 59.3863C187.114 63.2363 185.204 65.7143 182.129 65.7143C179.01 65.7143 177.109 63.2468 177.109 59.3968C177.109 55.5293 179.058 53.0793 182.129 53.0793V53.0688ZM196.884 53.3226H200.375C202.337 53.3226 203.532 54.4216 203.532 56.2153C203.532 58.0458 202.395 59.0993 200.436 59.0993H196.868V53.3243L196.884 53.3226ZM196.884 61.5511H200.303L203.687 68.0226H207.215L203.448 61.0716C205.512 60.3313 206.701 58.4291 206.701 56.1541C206.701 52.8413 204.445 50.7606 200.807 50.7606H193.811V68.0226H196.906V61.5511H196.884ZM221.597 65.3556H213.517V60.5221H221.155V58.0091H213.515V53.4276H221.596V50.7606H210.43V68.0226H221.597V65.3556Z" fill="#555555"/>
</svg>
