<svg xmlns="http://www.w3.org/2000/svg" viewBox="0 0 102 50"><defs><style>.cls-1{fill:#fff;opacity:0;}.cls-2,.cls-3{fill:#ef4531;}.cls-3{fill-rule:evenodd;}</style></defs><title>Buuuk-Logo-Orange-No-BG</title><g id="Layer_2" data-name="Layer 2"><g id="Layer_2-2" data-name="Layer 2"><rect id="bounding-box" class="cls-1" width="102" height="50"/><path id="underline" class="cls-2" d="M33.82,43.87l-.8-3A185.17,185.17,0,0,1,62.35,36,200.75,200.75,0,0,1,89.6,36L89.37,39A197.63,197.63,0,0,0,62.6,39,181.84,181.84,0,0,0,33.82,43.87Z"/><path id="k" class="cls-2" d="M96.82,25.93a6.39,6.39,0,0,1-1.7-5.06c2.44-1.72,4.35-4.6,4.71-9.15l-4.47.39c-.29,3.34-1.86,5.47-5.15,6.31L91.48,5l-4.35.37L84.8,29.91l4.35-.39.63-6.6c.36-.05.73-.12,1.09-.2a10.4,10.4,0,0,0,2.88,6.23A10.25,10.25,0,0,0,101,32l.34-4.3A5.93,5.93,0,0,1,96.82,25.93Z"/><path id="u3" class="cls-3" d="M68.68,14.78l4.39-.35c-.39,4.35-1,9.52-1,10.8,0,1,.3,1.44.75,1.61.74.29,1.51-.25,2.19-1.08.81-1,1.59-3.64,1.85-6.66.19-2.26.22-2.8.43-5.06l4.25-.37c-.32,3.44-.68,7.9-.83,9.52-.28,2.8,1,3.33,2,4,0,0-2.18,3-2.26,3a4.09,4.09,0,0,1-3-2.26c-1.18,1.83-2,2.78-4.5,3.1-3.94.51-5.23-2.51-5.25-4.55C67.73,25.21,68.13,20.93,68.68,14.78Z"/><path id="u2" class="cls-3" d="M50.7,16.31,55.1,16c-.39,4.35-1,9.52-1,10.8,0,1,.3,1.44.75,1.61.74.29,1.51-.25,2.19-1.08.81-1,1.59-3.64,1.85-6.66.19-2.26.22-2.8.43-5.06l4.25-.37c-.32,3.44-.68,7.9-.83,9.52-.28,2.8,1,3.33,2,4,0,0-2.18,3-2.26,3a4.09,4.09,0,0,1-3-2.26c-1.18,1.83-2,2.78-4.5,3.1-3.94.51-5.23-2.51-5.25-4.55C49.75,26.74,50.16,22.46,50.7,16.31Z"/><path id="u1" class="cls-3" d="M33.36,17.85l4.39-.35c-.39,4.35-1,9.52-1,10.8,0,1,.3,1.44.75,1.61.74.29,1.51-.25,2.19-1.08.81-1,1.59-3.64,1.85-6.66.19-2.26.22-2.8.43-5.06l4.25-.37c-.32,3.44-.68,7.9-.83,9.52-.28,2.8,1,3.33,2,4,0,0-2.18,3-2.26,3a4.09,4.09,0,0,1-3-2.26c-1.18,1.83-2,2.78-4.5,3.1-3.94.51-5.23-2.51-5.25-4.55C32.41,28.28,32.81,24,33.36,17.85Z"/><path id="B" class="cls-2" d="M27.31,28a8.83,8.83,0,0,0-2-1.43,11.7,11.7,0,0,0,2.75-8C27.78,14,23.52,9.28,15.87,9.28,7.52,9.28,1.26,14.92,1,15.16l2.9,3.17c.05,0,5.28-4.76,12-4.76,5.56,0,7.76,3.17,7.88,5.29.1,1.72-.74,6.3-5.65,6.88l-4.44.36.76-7.59-4.34.37L7.41,45l2.5-.13c1.61-.08,9.74-.53,11.58-1s8-2.41,8.32-9.3A8.25,8.25,0,0,0,27.31,28ZM20.5,39.73c-.86.2-4.8.5-8.31.71l1-10L18.54,30h0l2.28-.2a4.81,4.81,0,0,1,3.49,1.3,4.05,4.05,0,0,1,1.19,3.28C25.33,38.18,21.95,39.39,20.5,39.73Z"/></g></g></svg>