<svg xmlns="http://www.w3.org/2000/svg" viewBox="0 0 124 33">
  <path fill="#253B80" d="M46.21 6.75h-6.838c-.468 0-.866.34-.94.8l-2.764 17.54c-.055.346.213.658.564.658h3.266c.468 0 .866-.34.94-.803l.745-4.73c.073-.463.472-.803.94-.803h2.164c4.505 0 7.105-2.18 7.784-6.5.31-1.89.02-3.375-.87-4.415-.97-1.144-2.7-1.747-4.99-1.747zm.79 6.404c-.374 2.454-2.25 2.454-4.062 2.454h-1.032l.724-4.583c.043-.277.283-.48.563-.48h.473c1.235 0 2.4 0 3.002.703.36.42.47 1.044.332 1.906zm19.654-.08H63.38c-.28 0-.52.205-.564.48l-.145.918-.22-.332c-.71-1.03-2.29-1.373-3.87-1.373-3.62 0-6.71 2.74-7.31 6.586-.31 1.918.13 3.752 1.22 5.03 1 1.177 2.43 1.667 4.13 1.667 2.92 0 4.54-1.875 4.54-1.875l-.14.91c-.054.348.214.66.563.66h2.95c.47 0 .864-.34.94-.803l1.77-11.21c.054-.344-.213-.657-.563-.657zM62.09 19.45c-.317 1.87-1.802 3.126-3.696 3.126-.95 0-1.71-.305-2.2-.883-.483-.574-.667-1.39-.513-2.3.3-1.856 1.81-3.153 3.67-3.153.93 0 1.69.31 2.19.892.5.59.7 1.41.56 2.317zm22.006-6.375h-3.29c-.315 0-.61.156-.788.417l-4.54 6.686-1.923-6.425c-.12-.402-.492-.678-.912-.678H69.41c-.394 0-.667.384-.542.754l3.625 10.63-3.408 4.81c-.268.38.002.9.465.9h3.287c.312 0 .604-.15.78-.41l10.947-15.8c.262-.38-.007-.9-.468-.9z"/>
  <path fill="#179BD7" d="M94.992 6.75h-6.84c-.467 0-.865.34-.938.8l-2.766 17.54c-.055.346.213.658.562.658h3.51c.326 0 .605-.238.656-.562l.785-4.97c.08-.464.48-.804.94-.804h2.17c4.51 0 7.11-2.18 7.79-6.5.31-1.89.01-3.375-.87-4.415-.97-1.142-2.7-1.747-4.99-1.747zm.79 6.404c-.374 2.454-2.25 2.454-4.063 2.454h-1.04l.72-4.583c.04-.277.28-.48.56-.48h.47c1.23 0 2.4 0 3 .703.36.42.47 1.044.33 1.906zm19.652-.08h-3.273c-.28 0-.52.205-.56.48l-.14.918-.23-.332c-.71-1.03-2.29-1.373-3.86-1.373-3.62 0-6.71 2.74-7.31 6.586-.31 1.918.13 3.752 1.22 5.03 1 1.177 2.43 1.667 4.13 1.667 2.92 0 4.54-1.875 4.54-1.875l-.146.91c-.054.348.214.66.565.66h2.95c.47 0 .867-.34.94-.803l1.77-11.21c.055-.344-.213-.657-.564-.657zm-4.565 6.375c-.32 1.87-1.81 3.12-3.7 3.12-.95 0-1.71-.31-2.2-.89-.49-.58-.67-1.39-.52-2.3.29-1.86 1.8-3.16 3.67-3.16.93 0 1.68.31 2.18.89.5.59.7 1.41.55 2.32zm8.42-12.22l-2.81 17.85c-.06.34.21.65.56.65h2.82c.47 0 .87-.34.94-.8l2.77-17.53c.05-.35-.22-.66-.57-.66h-3.16c-.28 0-.52.2-.56.48z"/>
  <path fill="#253B80" d="M7.266 29.154l.523-3.322-1.17-.027H1.06L4.928 1.292c.012-.074.05-.143.108-.192.057-.05.13-.076.206-.076h9.38c3.115 0 5.264.648 6.386 1.927.526.6.86 1.23 1.023 1.92.17.73.18 1.59.01 2.65l-.01.08v.68l.53.3c.45.24.8.51 1.07.82.45.51.74 1.165.87 1.938.13.795.09 1.74-.12 2.81-.24 1.23-.63 2.306-1.152 3.184-.48.81-1.095 1.48-1.824 2-.693.49-1.52.87-2.46 1.11-.9.233-1.94.35-3.07.35h-.73c-.52 0-1.03.19-1.43.527-.4.343-.66.813-.74 1.327l-.053.3-.925 5.853-.04.215c-.01.07-.03.1-.06.126-.025.02-.06.033-.1.033H7.27z"/>
  <path fill="#179BD7" d="M23.048 7.667c-.028.18-.06.362-.096.55-1.237 6.35-5.47 8.545-10.874 8.545H9.326c-.66 0-1.218.48-1.32 1.132l-1.41 8.936-.4 2.533c-.066.428.264.814.696.814h4.88c.58 0 1.07-.42 1.16-.99l.05-.248.918-5.84.06-.32c.09-.57.58-.99 1.16-.99h.73c4.728 0 8.43-1.92 9.512-7.48.452-2.32.218-4.26-.978-5.63-.362-.41-.81-.75-1.336-1.03z"/>
  <path fill="#222D65" d="M21.754 7.15c-.19-.054-.384-.104-.584-.15-.2-.043-.407-.082-.62-.116-.74-.12-1.554-.177-2.425-.177h-7.352c-.18 0-.353.04-.507.115-.34.163-.59.484-.652.877L8.05 17.6l-.045.29c.103-.653.66-1.133 1.32-1.133h2.753c5.405 0 9.637-2.195 10.874-8.545.037-.188.068-.37.096-.55-.313-.166-.652-.308-1.017-.43-.09-.03-.18-.058-.27-.086z"/>
  <path fill="#253B80" d="M9.614 7.7c.06-.394.313-.715.652-.877.155-.074.326-.115.507-.115h7.352c.87 0 1.684.057 2.426.177.22.034.42.073.62.117.2.045.4.095.59.15l.28.086c.37.12.71.264 1.02.43.37-2.348 0-3.946-1.27-5.393C20.38.682 17.86 0 14.63 0H5.25c-.67 0-1.23.48-1.33 1.133L.01 25.898c-.077.49.3.932.795.932h5.79l1.455-9.225L9.614 7.7z"/>
</svg>
