<svg xmlns="http://www.w3.org/2000/svg" fill-rule="evenodd" stroke-miterlimit="1.414" viewBox="0 0 865 298" clip-rule="evenodd" stroke-linejoin="round">
  <ellipse cx="145.167" cy="149.167" fill="url(#a)" rx="140.167" ry="139.5"/>
  <clipPath id="b">
    <ellipse cx="145.167" cy="149.167" rx="140.167" ry="139.5"/>
  </clipPath>
  <g clip-path="url(#b)">
    <path fill="#fff" d="M167.768 11.474c2.985.483 5.94 1.06 8.858 1.727-24.948.28-35.506 17.78-34.293 30.4-2.19 45.18 116.31 69.14 112 144.67-4.467 78.32-93.84 101.64-123.666 98.67l-9.603-.32c-3.29-.57-6.543-1.25-9.75-2.04h7.02c41.817.78 43.99-19.9 43.666-30.23.408-46.75-116.317-67.48-112.333-144.66 3.656-70.84 75.403-96.12 118.1-98.19z"/>
    <path fill="url(#c)" d="M167.76 11.475c2.985.482 5.938 1.058 8.857 1.726-24.942.28-35.497 17.78-34.284 30.4-.818 16.88 15.214 30.8 35.394 45.56-35.5 19.19-92.816 14.46-124.558 46.41-2.68-7.89-3.99-16.46-3.51-25.88 3.65-70.84 75.39-96.11 118.09-98.19z"/>
    <path fill="url(#d)" d="M173.667 11.333C169.18 10.553 49.913 14.46 45 109.667c-4.575 88.654 114.622 98.02 117 144.666 3.128-42.676-116.73-69.695-112.333-144.666 4.498-76.715 81.11-97.053 124-98.334z"/>
    <path fill="url(#e)" d="M130.667 286.595c4.86 5.91 125.942-8.46 128.666-98.334 2.745-90.55-116.543-96.52-117-144.66-2.19 45.18 116.31 69.14 112 144.67-4.467 78.32-93.84 101.31-123.666 98.34z"/>
    <path fill="url(#f)" d="M254.333 180.316v7.945c-4.467 78.32-93.84 101.64-123.666 98.67l-5.448-.18c-3.57-.59-7.09-1.32-10.56-2.18h3.67c41.82.78 43.99-19.9 43.67-30.23.09-10.22-5.42-19.19-14.04-27.78 33.35-15.63 70.26-8.22 105.49-53.73.43 2.44.72 4.94.87 7.51z"/>
  </g>
  <path fill="#666e76" fill-rule="nonzero" d="M358.65 205.788c-3.587-.205-11.275-1.81-13.837-2.904-1.23-.512-4.442-2.084-5.125-2.494-3.35-2.153-8.337-6.492-10.25-8.986-3.383-4.407-5.98-9.43-5.262-10.284.297-.396.793-.444 1.23-.582.274-.086 12.027-4.92 13.017-5.295l1.777-.717.683 1.264c2.255 4.134 3.998 6.32 6.697 8.542.758.623 1.114.914 1.947 1.435.728.454.772.366 1.47.854 1.742 1.2 6.286 2.57 9.156 2.77l2.836.31c1.06.12 6.49-.48 8.2-1.02 5.09-1.67 8.33-4.17 9.94-7.62.23-.51.48-1.07.62-1.62.32-1.21.3-2.49.29-3.74-.01-1.93-.14-4.03-1.08-5.77-.76-1.39-1.8-2.55-2.92-3.66-.99-.96-2.1-1.8-3.22-2.6-1.31-.94-2.11-1.47-3.52-2.26-.27-.15-9.39-4.22-10.01-4.49-1.55-.6-13.32-5.88-13.6-6.01-3.83-2.085-5.98-3.35-7.725-4.613-6.32-4.48-10.283-9.81-11.786-15.75-.924-3.76-1.095-6.53-.65-10.32.375-3.04 2.32-8.54 2.94-9.636.26-.47.425-.79.656-1.174.15-.24.317-.47.49-.69 1.43-1.788 2.018-2.44 3.585-4.104.446-.47 1.23-1.234 1.728-1.65 2.253-1.95 6.83-4.78 8.642-5.363.686-.206 1.437-.513 1.608-.65 1.62-.688 5.91-1.606 8.887-2.05 3.725-.546 12.54-.444 16.06.17 3.176.58 8.2 2.12 10.625 3.28 4.03 1.913 10.25 7.243 12.95 11.036 2.426 3.42 3.62 5.536 3.69 6.493.07.82-.1 1.024-1.196 1.434-2.345.82-4.62 1.813-6.94 2.7-3.453 1.296-6.015 2.39-7.04 2.9-.65.34-1.16-.14-2.19-2.19-1.124-2.184-5.532-6.42-7.855-7.55-4.1-1.95-5.296-2.254-9.5-2.46-4.99-.24-7.38.206-11 1.98-3.383 1.677-4.613 2.87-6.013 5.71-.95 1.88-1.122 2.594-1.122 4.814-.033 2.36.103 2.91 1.163 4.96 2.22 4.44 6.73 7.59 16.64 11.72.61.24 14.62 6.33 16.33 7.18 10.69 5.3 16.942 11.38 19.75 19.24 1.77 4.954 1.4 13.94-.82 18.96-.177.375-.45 1.127-.65 1.67-1.06 2.94-8.61 11.38-11.48 12.85-.55.27-1.54.85-2.19 1.26-2.19 1.37-10.66 4-14.18 4.377-3.168.346-8.98.81-12.47.377m52.17-2.12c-1.01-1.01-.095-102.87-.01-104.95.026-.52.066-1.04.11-1.562 0-.003.05-.45.14-.524.38-.31 41.82-.1 44.76.617 1.64.41 3.69 1.03 4.51 1.407.37.175.74.336 1.12.482.4.15.74.183 1.11.37.914.46 2.81 1.76 3.23 2.05 1.65 1.14 3.353 2.343 4.86 3.686 2.255 1.95 5.74 6.63 7.31 9.84 3.384 6.8 4.444 15.41 2.84 23.37-.72 3.62-1.164 4.89-2.906 8.37-4.545 8.99-12.403 15.58-21.56 18.11-3.86 1.06-8.13 1.37-18.825 1.37h-9.84l-.17 37.41-8.236.1c-4.51.036-8.305-.033-8.44-.14m37.89-53.54c1.673-.24 4.885-1.47 5.64-2.15.27-.27.714-.48.92-.48.24 0 1.4-.99 2.596-2.15 2.46-2.46 4.716-6.66 5.263-9.804.545-2.94.272-8.71-.548-10.93-2.12-6.01-5.57-9.396-12.03-11.82-1.3-.48-22.89-.89-22.89-.89v38.71s20.26-.34 21.044-.477z"/>
  <path fill="#9ba6aa" fill-rule="nonzero" d="M519.233 232.883c-3.62-.376-8.473-1.436-12.47-2.7-4.066-1.298-10.353-4.202-10.626-4.886-.17-.512 4.44-12.026 5.16-12.812.34-.376.785-.273 2.46.547 3.142 1.605 8.643 3.382 12.81 4.202 3.28.615 4.648.683 9.807.547 9.26-.23 13.974-1.81 18.177-6.01 3.63-3.62 5.1-7.82 5.1-14.45v-3.11l-3 2.91c-6.18 5.95-12.81 8.58-21.93 8.61-10.69.04-19.23-3.21-26.58-10.14-5.19-4.95-8.95-11.79-10.9-20.05-1.16-4.85-1.47-14.86-.68-19.98 1.61-10.044 5.74-18.175 12.34-24.325 4.857-4.51 9.64-7.14 16.2-8.886 2.904-.79 4.03-.89 9.12-.926 6.767-.03 9.877.58 14.728 2.84 3.657 1.71 5.5 3.007 8.748 6.116l2.63 2.53.105-4.715.104-4.75h16.4v37.244c0 28.63-.1 37.96-.44 40.32-2.085 14.42-9.16 24.12-21.08 28.9-6.8 2.7-17.46 3.93-26.14 3.006zm12.574-43.22c8.405-1.71 14.18-7.38 17.05-16.776.853-2.802.92-3.45.92-9.328 0-5.92-.067-6.53-.92-9.33-2.87-9.26-8.645-15-16.914-16.85-3.416-.75-9.635-.52-12.47.51-8.235 2.9-13.36 9.05-15.512 18.58-.88 3.99-.75 11.2.35 15.34 2.05 7.86 7.18 14.14 13.6 16.71 4.27 1.67 9.23 2.08 13.91 1.13zm247.606 42.502c-.103-.24-.137-24.805-.103-54.598l.102-54.155h16.06l.1 4.715.104 4.75 2.7-2.563c4.475-4.237 8.917-6.73 14.35-8.166 4.133-1.06 12.743-1.093 17.356 0 13.803 3.178 24.53 13.6 28.46 27.573 1.606 5.74 2.187 15.45 1.3 21.46-1.88 12.71-7.757 22.59-17.12 28.81-10.18 6.8-25.11 7.76-35.805 2.36-2.904-1.47-4.715-2.8-7.585-5.6l-2.665-2.52v18.76c0 14.18-.103 18.9-.41 19.2-.615.62-16.64.58-16.844 0zm45.1-42.47c3.075-.648 7.38-2.767 9.67-4.783 3.45-3.04 6.217-7.755 7.618-12.983.65-2.33.76-3.63.76-8.55 0-6.77-.51-9.33-2.9-14.18-1.12-2.26-2.08-3.52-4.2-5.67-4.57-4.62-8.33-6.26-15.03-6.53-3.11-.14-4.68-.04-6.49.37-10.21 2.42-17.12 11.72-17.83 24.12-.68 11.85 4.31 22.07 12.88 26.27 1.61.78 3.9 1.64 5.13 1.88 2.94.65 7.45.65 10.42.03zm-174.66 15.888c-18.724-2.152-32.56-14.59-36.56-32.868-.853-3.93-.853-13.974-.033-17.903 2.29-10.49 7.653-19.03 15.887-25.215 12.232-9.157 29.486-11.036 44.075-4.715 4.715 2.016 8.645 4.783 12.745 8.95 5.466 5.536 8.405 10.798 10.49 18.725 1.195 4.578 1.502 13.36.614 18.552-1.53 9.22-5.22 16.29-11.82 22.68-6.45 6.25-12.91 9.63-21.56 11.27-3.41.65-10.45.92-13.83.51zm12.027-16.195c4.032-1.06 7.585-3.177 10.763-6.355 3.245-3.21 5.125-6.355 6.56-10.933.683-2.29.785-3.212.785-8.713 0-6.08 0-6.184-1.127-9.395-1.46-4.237-3.58-7.55-6.62-10.455-4.68-4.442-9.19-6.287-15.99-6.526-6.66-.23-11.65 1.2-16.33 4.72-4.13 3.11-7.55 8.68-8.98 14.49-1.06 4.27-1.06 11.11 0 15.04 2.67 9.98 9.26 16.44 18.83 18.49 2.81.58 9.3.41 12.13-.34zm65.258 16.195c-12.88-1.98-20.808-11.07-22.926-26.308-.41-2.938-.48-8.268-.41-29.725l.102-26.138h16.742l.17 26.65c.17 23.78.274 26.855.786 28.632 2.22 7.483 7.415 11.343 15.273 11.275 7.824-.07 13.086-3.87 15.785-11.38l.786-2.22.17-26.48.172-26.48h17.083v80.63h-16.74l-.17-4.68-.17-4.65-1.67 1.91c-3.55 4.13-8.47 7.14-13.63 8.4-2.8.71-8.54.95-11.34.54zm-152.042-1.776c-.103-.24-.137-18.416-.103-40.42l.103-39.975h16.742l.102 5.467.103 5.43 1.332-2.09c1.81-2.74 5.535-6.22 8.44-7.83 3.006-1.71 7.106-2.87 10.352-2.97l2.562-.07.1 8.33c.03 4.61-.04 8.47-.21 8.64-.17.17-1.57.44-3.15.61-10.49 1.19-16.06 7.24-18.35 19.95-.45 2.56-.58 6.8-.75 24.12l-.21 21.013-8.48.102c-6.59.07-8.51 0-8.61-.34z"/>
  <defs>
    <radialGradient id="a" cx="0" cy="0" r="1" gradientUnits="userSpaceOnUse" gradientTransform="rotate(117.227 89.863 82.496) scale(257.91)">
      <stop offset="0" stop-color="#f2f2f2"/>
      <stop offset=".18" stop-color="#7dd5d6"/>
      <stop offset=".54" stop-color="#119aaa"/>
      <stop offset="1" stop-color="#063266"/>
    </radialGradient>
    <linearGradient id="c" x2="1" gradientUnits="userSpaceOnUse" gradientTransform="translate(49.567 73.513) scale(127.166)">
      <stop offset="0" stop-color="#cfeaf0"/>
      <stop offset=".48" stop-color="#f4fafb"/>
      <stop offset="1" stop-color="#fff"/>
    </linearGradient>
    <linearGradient id="d" x2="1" gradientUnits="userSpaceOnUse" gradientTransform="rotate(90 48.897 60.372) scale(242.86)">
      <stop offset="0" stop-color="#517697"/>
      <stop offset=".24" stop-color="#75b0be"/>
      <stop offset=".43" stop-color="#85cad0"/>
      <stop offset=".67" stop-color="#6ca1b4"/>
      <stop offset="1" stop-color="#344777"/>
    </linearGradient>
    <linearGradient id="e" x2="1" gradientUnits="userSpaceOnUse" gradientTransform="scale(242.705 243.944) rotate(-90 .99 .188)">
      <stop offset="0" stop-color="#517697"/>
      <stop offset=".21" stop-color="#75b0bf"/>
      <stop offset=".37" stop-color="#85cad0"/>
      <stop offset=".66" stop-color="#6ea5b7"/>
      <stop offset="1" stop-color="#344777"/>
    </linearGradient>
    <linearGradient id="f" x2="1" gradientUnits="userSpaceOnUse" gradientTransform="rotate(-179.863 127.205 89.183) scale(139.786)">
      <stop offset="0" stop-color="#cfeaf0"/>
      <stop offset=".52" stop-color="#f2f9fb"/>
      <stop offset="1" stop-color="#fff"/>
    </linearGradient>
  </defs>
</svg>
