<svg width="307" height="70" fill="none" xmlns="http://www.w3.org/2000/svg"><path d="M.007 46.497H0l.007-.56h11.995c0 4.557 3.073 8.794 7.675 8.794 4.6 0 7.672-4.21 7.672-8.794l-.007-25.69h12.004l.007 26.25h-.007c-.297 10.609-8.997 19.128-19.67 19.128-10.672 0-19.372-8.52-19.669-19.128z" fill="#FF8B8B"/><path d="M19.677 39.375c10.867 0 19.676-8.814 19.676-19.688C39.353 8.815 30.543 0 19.676 0 8.81 0 0 8.814 0 19.688 0 30.56 8.81 39.374 19.677 39.374z" fill="#0BBCD6"/><path d="M75.563 33.605a19.601 19.601 0 0 1-13.91 5.77c-10.861 0-19.676-8.82-19.676-19.688C41.977 8.82 50.791 0 61.653 0c5.43 0 10.349 2.205 13.91 5.77l-13.91 13.918 13.91 13.917zm34.106 0a19.6 19.6 0 0 1-13.91 5.77c-10.862 0-19.677-8.82-19.677-19.688C76.082 8.82 84.897 0 95.76 0c5.431 0 10.349 2.205 13.91 5.77l-13.91 13.918 13.91 13.917z" fill="#F0CF61"/><path d="M201.06 0l19.677 39.375h-39.353L201.06 0zm-87.094 0h13.118v39.375h-13.118V0z" fill="#61BFAD"/><path d="M223.36 0l26.236 39.375H223.36V0z" fill="#F0CF61"/><path d="M262.713 0l-26.235 39.375h26.235V0zm-129.07 0h18.364l.093.093-19.584 19.595L152.1 39.282l-.093.093h-18.364l-19.677-19.688L133.643 0z" fill="#FF8B8B"/><path d="M285.571 0c10.862 0 19.677 8.82 19.677 19.688 0 10.867-8.815 19.687-19.677 19.687h-19.676V0h19.676zM172.112 24.325l9.27 9.28a19.603 19.603 0 0 1-13.908 5.77c-10.862 0-19.677-8.82-19.677-19.688C147.797 8.82 156.612 0 167.474 0a19.604 19.604 0 0 1 13.91 5.77l-9.274 9.28a6.53 6.53 0 0 0-4.634-1.925 6.563 6.563 0 0 0 0 13.125 6.53 6.53 0 0 0 4.634-1.925h.002z" fill="#0BBCD6"/><path d="M265.895 0h13.117v65.625h-13.117V0z" fill="#61BFAD"/><path d="M79.726 63.333c.157 3.133 2.773 5.12 6.733 5.12 4.18 0 6.778-2.093 6.778-5.454 0-2.643-1.47-4.095-4.974-4.883l-1.986-.455c-2.15-.49-3.025-1.172-3.025-2.345 0-1.47 1.311-2.432 3.288-2.432 1.889 0 3.225.945 3.445 2.467h2.947c-.145-2.97-2.763-5.05-6.383-5.05-3.866 0-6.42 2.082-6.42 5.215 0 2.572 1.47 4.13 4.6 4.833l2.24.511c2.208.517 3.153 1.243 3.153 2.49 0 1.45-1.47 2.49-3.498 2.49-2.186 0-3.719-.997-3.91-2.537h-3.008l.02.03zm16.977-12.572h3.086v17.262h-3.086V50.761zm10.32 17.262V56.275h.202l8.466 11.748h2.665V50.761h-2.964v11.735h-.205l-8.465-11.735h-2.676v17.262h2.977zm30.523-6.912v-2.17h-7.162v2.414h4.149l-.018.361c-.052 2.38-1.854 3.983-4.477 3.983-3.078 0-5.002-2.415-5.002-6.34 0-3.885 1.889-6.283 4.897-6.283 2.204 0 3.746 1.085 4.373 3.045h3.067c-.552-3.535-3.47-5.81-7.451-5.81-4.914 0-8.059 3.518-8.059 9.048 0 5.6 3.106 9.065 8.103 9.065 4.6 0 7.544-2.86 7.544-7.345l.036.032zm14.706 6.912h3.311l-6.132-17.262h-3.468l-6.122 17.262h3.12l1.484-4.413h6.349l1.458 4.413zm-4.722-13.972h.203l2.343 7.117h-4.914l2.368-7.117zm11.001-3.29v17.262h3.078v-5.658h3.743c3.491 0 5.93-2.345 5.93-5.766 0-3.482-2.355-5.838-5.798-5.838h-6.953zm3.082 2.583h3.061c2.224 0 3.48 1.137 3.48 3.255 0 2.058-1.294 3.206-3.491 3.206h-3.05v-6.461zm20.516-3.014c-5.007 0-8.177 3.483-8.177 9.057 0 5.573 3.108 9.065 8.179 9.065 5.033 0 8.141-3.504 8.141-9.065 0-5.576-3.13-9.056-8.141-9.056h-.002zm0 2.74c3.061 0 4.985 2.453 4.985 6.317 0 3.85-1.91 6.328-4.985 6.328-3.119 0-5.02-2.468-5.02-6.318 0-3.867 1.949-6.317 5.02-6.317v-.01zm14.755.253h3.491c1.962 0 3.157 1.099 3.157 2.893 0 1.83-1.137 2.884-3.096 2.884h-3.568v-5.775l.016-.002zm0 8.228h3.419l3.384 6.472h3.528l-3.767-6.951c2.064-.74 3.253-2.643 3.253-4.918 0-3.312-2.256-5.393-5.894-5.393h-6.996v17.262h3.095v-6.471h-.022zm24.713 3.805h-8.08v-4.833h7.638v-2.514h-7.64v-4.581h8.081v-2.667H210.43v17.262h11.167v-2.667z" fill="#fff"/></svg>