<svg xmlns="http://www.w3.org/2000/svg" viewBox="0 0 760 180">
  <path fill="#52595f" d="M74.95 15.01c.403.056.51.052.9.18s.474.195.832.39L95 27.028l18.318-11.448.404-.22c.38-.15.47-.207.873-.287.603-.12 1.232-.09 1.822.083.394.116.48.18.844.363l30.51 17.79c.33.21.42.26.71.53.54.51.92 1.17 1.09 1.89.09.38.08.48.1.87v23.31l18.55 11.59.35.25c.29.25.37.3.61.6.36.44.61.97.74 1.53.09.37.08.47.1.85v30.51c-.02.38-.01.47-.09.85-.16.69-.52 1.34-1.02 1.85-.27.27-.36.31-.67.53l-18.55 11.59v23.31l-.02.44c-.07.38-.07.49-.2.86-.2.55-.53 1.06-.96 1.46-.28.27-.38.31-.7.53l-30.51 17.79c-.363.18-.45.25-.842.36-.74.212-1.53.2-2.26-.04-.39-.123-.475-.19-.83-.39L95 152.972 76.682 164.42l-.404.22c-.38.15-.47.207-.873.287-.603.12-1.232.09-1.822-.083-.394-.115-.48-.18-.843-.363l-30.51-17.79c-.325-.21-.42-.25-.704-.53-.535-.5-.916-1.17-1.085-1.88-.09-.38-.07-.48-.1-.87V120.1l-18.55-11.6-.35-.247c-.28-.25-.36-.304-.6-.602-.36-.44-.61-.97-.74-1.53-.08-.37-.07-.47-.09-.85V74.75c.02-.38.01-.478.1-.85.16-.7.52-1.346 1.03-1.85.27-.27.36-.315.67-.534L40.34 59.92V36.61l.025-.44c.067-.386.068-.49.202-.86.2-.553.53-1.058.96-1.465.284-.27.378-.312.704-.53L72.74 15.52c.364-.185.45-.25.843-.364.394-.116.5-.11.906-.152l.46.007z"/>
  <path fill="#fff" d="M95.447 49.335c.15.013.298.022.446.04.444.052.884.143 1.313.273.428.13.845.297 1.244.5.133.066.262.142.393.213l30.51 17.8c.332.21.42.25.734.49.59.44 1.114.97 1.552 1.56.7.95 1.17 2.06 1.38 3.22.2 1.16.13 2.37-.21 3.5-.21.71-.53 1.38-.93 2-.49.74-1.1 1.4-1.81 1.93-.32.24-.4.28-.74.49l-30.5 17.79c-.35.19-.43.25-.79.41-.82.36-1.69.57-2.58.63-1.04.07-2.08-.08-3.06-.43-.84-.3-1.62-.74-2.3-1.31-.57-.47-1.07-1.03-1.48-1.64-1.07-1.61-1.49-3.6-1.17-5.51.13-.73.36-1.44.69-2.1.46-.93 1.11-1.76 1.9-2.43.34-.29.703-.53 1.082-.77l19.22-11.21-15.348-9-22.88 13.35v21.748L95 114.22l26.665-15.554.39-.212c.404-.19.805-.366 1.233-.497.992-.3 2.042-.398 3.072-.282.882.1 1.746.353 2.54.748.664.33 1.277.755 1.818 1.26 1.302 1.217 2.147 2.883 2.362 4.652.09.734.07 1.48-.054 2.21-.176 1.02-.56 2.004-1.126 2.872-.485.744-1.1 1.4-1.81 1.935-.315.237-.404.282-.738.49l-30.51 17.797-.392.21c-.4.2-.816.37-1.244.5-1.432.43-2.98.43-4.412 0-.428-.13-.845-.3-1.244-.5-.133-.07-.262-.15-.393-.22l-30.51-17.8-.374-.24c-.368-.25-.714-.52-1.035-.83-1.07-1.02-1.83-2.34-2.17-3.78-.1-.43-.165-.87-.19-1.31-.01-.15-.01-.3-.014-.44v-30.5c.005-.15.005-.3.013-.45.026-.44.09-.88.19-1.31.34-1.44 1.1-2.76 2.17-3.78.322-.31.668-.58 1.036-.83.123-.08.25-.15.375-.23l30.51-17.8c.395-.22.788-.418 1.212-.57.56-.21 1.144-.35 1.737-.42.395-.05.496-.04.893-.055.15.002.298.01.447.01z"/>
  <path fill="#52595f" d="M329.065 53.694c2.347 0 4.35 2.002 4.35 4.487v14.36c0 .97-.346 1.94-1.036 2.77-3.94 4.7-9.53 7.25-16.3 7.25-14.02 0-21.96-10.56-21.96-24.5 0-14.15 8.35-24.5 22.02-24.5 6.76 0 12.35 2.49 16.29 7.18 3.8 4.42-2.97 9.87-6.63 5.73-2.21-2.76-5.39-4.14-9.67-4.14-8.77 0-13.26 6.56-13.26 15.74 0 8.98 4.14 15.74 13.19 15.74 3.45 0 6.35-1.03 8.56-3.03v-8.29h-10.77c-5.87 0-5.66-8.76 0-8.76h15.18zm273.65 28.856c10.01 0 19.052-5.177 19.052-14.635 0-11.045-6.972-13.737-17.81-14.704-6.973-.41-8.837-.82-8.837-4.83 0-4.42 4.004-5.8 8.49-5.8 2.28 0 6.63.49 8.562 2.9 3.658 5.11 10.355.14 8.077-4.21-2.9-5.45-10.36-7.73-16.64-7.73-10.15 0-17.54 5.8-17.54 14.85 0 10.5 6.69 13.12 17.26 13.88 8.42.62 9.39 1.52 9.39 5.66 0 4.15-5.53 5.6-10.01 5.6-2.76 0-6.56-.41-8.15-2.41-3.45-5.24-11.05-1.1-8.42 3.39 4 6.21 9.73 8.08 16.57 8.08zm62.13 0c10.01 0 19.052-5.177 19.052-14.635 0-11.045-6.972-13.737-17.81-14.704-6.973-.41-8.837-.82-8.837-4.83 0-4.42 4.004-5.8 8.492-5.8 2.278 0 6.627.49 8.56 2.9 3.66 5.11 10.355.14 8.077-4.21-2.9-5.45-10.36-7.73-16.64-7.73-10.15 0-17.54 5.8-17.54 14.85 0 10.5 6.69 13.12 17.26 13.88 8.42.62 9.39 1.52 9.39 5.66 0 4.15-5.53 5.6-10.01 5.6-2.76 0-6.56-.41-8.15-2.41-3.45-5.24-11.05-1.1-8.42 3.39 4 6.21 9.73 8.08 16.57 8.08zm64.615-28.856c2.347 0 4.35 2.002 4.35 4.487v14.36c0 .97-.346 1.94-1.037 2.77-3.935 4.7-9.526 7.25-16.292 7.25-14.01 0-21.95-10.56-21.95-24.5 0-14.15 8.36-24.5 22.02-24.5 6.77 0 12.36 2.49 16.3 7.18 3.8 4.42-2.97 9.87-6.62 5.73-2.21-2.76-5.38-4.14-9.66-4.14-8.76 0-13.25 6.56-13.25 15.74 0 8.98 4.14 15.74 13.19 15.74 3.46 0 6.36-1.03 8.56-3.03v-8.29H714.3c-5.868 0-5.66-8.76 0-8.76h15.19zM274.53 80.48c2.415 3.59 8.214 1.38 8.214-2.9V38.507c0-6.144-9.32-6.144-9.32 0v23.126l-16.982-26.026c-2.416-3.59-8.215-1.38-8.215 2.9V77.58c0 6.144 9.32 6.144 9.32 0V54.454L274.53 80.48zm144.97 0c2.415 3.59 8.214 1.38 8.214-2.9V38.507c0-6.144-9.32-6.144-9.32 0v23.126l-16.982-26.026c-2.416-3.59-8.215-1.38-8.215 2.9V77.58c0 6.144 9.32 6.144 9.32 0V54.454L419.5 80.48zm133.854-46.6c11.943 0 20.09 5.246 20.09 15.877 0 6.35-2.832 10.907-8.56 13.737l7.8 11.598c3.52 5.04-4.28 10.08-7.456 5.108l-9.873-14.635-9.043-.07v12.15c0 6.007-9.044 5.87-9.044 0V38.44c0-2.76 2.347-4.556 4.487-4.556h11.598zm-323.56 0c2.554 0 4.625 2.07 4.625 4.625 0 2.623-2.07 4.694-4.63 4.694h-20.57v10.22h14.08c2.62 0 4.69 2.07 4.69 4.62s-2.07 4.62-4.7 4.62h-14.08v10.22h20.57c2.55 0 4.62 2.07 4.62 4.69 0 2.55-2.07 4.62-4.63 4.62h-24.71c-2.83 0-5.18-2.28-5.18-5.11v-38.1c0-2.83 2.34-5.11 5.18-5.11h24.72zm144.9 0c2.625 0 4.696 2.07 4.696 4.625 0 2.623-2.07 4.9-4.694 4.694l-7.94-.83v31.34l7.94-.83c2.624-.21 4.695 2.07 4.695 4.69 0 2.55-2.07 4.62-4.69 4.62h-25.13c-2.62 0-4.69-2.07-4.69-4.63 0-2.63 2.07-4.9 4.7-4.7l7.94.83V42.37l-7.94.827c-2.62.208-4.69-2.07-4.69-4.693 0-2.554 2.07-4.625 4.7-4.625h25.12zm96.717 0c2.56 0 4.63 2.07 4.63 4.625 0 2.623-2.07 4.694-4.62 4.694h-20.57v10.22h14.09c2.63 0 4.7 2.07 4.7 4.62s-2.07 4.62-4.69 4.62h-14.09v10.22h20.57c2.56 0 4.63 2.07 4.63 4.69 0 2.55-2.07 4.62-4.62 4.62H446.7c-2.83 0-5.177-2.28-5.177-5.11v-38.1c0-2.83 2.35-5.11 5.18-5.11h24.72zm48.33 0c2.56 0 4.63 2.07 4.63 4.625 0 2.623-2.07 4.694-4.62 4.694h-20.58v10.22h14.09c2.63 0 4.7 2.07 4.7 4.62s-2.07 4.62-4.69 4.62h-14.09v10.22h20.57c2.56 0 4.63 2.07 4.63 4.69 0 2.55-2.07 4.62-4.62 4.62h-24.71c-2.83 0-5.17-2.28-5.17-5.11v-38.1c0-2.83 2.35-5.11 5.18-5.11h24.72zm115.01 18.41c3.17 0 5.74 2.576 5.74 5.75 0 3.176-2.57 5.754-5.73 5.754-3.16 0-5.73-2.578-5.73-5.753 0-3.17 2.57-5.75 5.74-5.75zm-81.39 4.233c6.77 0 11.12-1.588 11.12-6.766 0-5.385-4.35-6.835-11.12-6.835h-7.04v13.6h7.04z"/>
  <path fill="#52595f" fill-opacity=".9" d="M199.914 131.164c0 3.7 5.6 3.7 5.6 0v-18.3l4.65 8.7c1 1.9 3.6 1.9 4.6 0l4.55-8.7v18.3c0 3.7 5.6 3.7 5.6 0v-29.4c0-2.8-3.9-4-5.15-1.5l-7.35 14.55-7.35-14.55c-1.3-2.55-5.15-1.3-5.15 1.5v29.4zm38.2 2.8h19c1.55 0 2.8-1.25 2.8-2.8 0-1.55-1.25-2.8-2.8-2.8h-16.6v-9.1h11.75c1.55 0 2.8-1.25 2.8-2.8 0-1.55-1.25-2.8-2.8-2.8h-11.75v-9.1h16.6c1.55 0 2.8-1.25 2.8-2.8 0-1.55-1.25-2.8-2.8-2.8h-19c-1.75 0-3.2 1.4-3.2 3.15v28.7c0 1.75 1.45 3.15 3.2 3.15zm35 0h19c1.55 0 2.8-1.25 2.8-2.8 0-1.55-1.25-2.8-2.8-2.8h-16.6v-9.1h11.75c1.55 0 2.8-1.25 2.8-2.8 0-1.55-1.25-2.8-2.8-2.8h-11.75v-9.1h16.6c1.55 0 2.8-1.25 2.8-2.8 0-1.55-1.25-2.8-2.8-2.8h-19c-1.75 0-3.2 1.4-3.2 3.15v28.7c0 1.75 1.45 3.15 3.2 3.15zm41.5-2.8c0 3.7 5.55 3.7 5.55 0v-27.1l9.95.5c3.7.2 3.7-5.6 0-5.6h-25.45c-3.75 0-3.75 5.8 0 5.6l9.95-.5v27.1zm37.796 3.05c7.6 0 12.75-5.2 12.75-12.75v-19.85c0-3.55-5.25-3.45-5.25 0v19.85c0 4.5-2.6 7.5-7.5 7.5-4.8 0-7.5-2.8-7.5-7.5v-19.85c0-3.55-5.25-3.45-5.25 0v19.85c0 7.45 4.9 12.75 12.75 12.75zm21.998-2.95c0 3.55 5.45 3.6 5.45 0v-9.8h6c8.45 0 14.5-3.6 14.5-11.25 0-7.6-5.85-11.25-14.5-11.25h-8.75c-1.3 0-2.7 1.1-2.7 2.75v29.55zm5.45-15.25v-11.6h6c5.25 0 9.05 1.4 9.05 5.8 0 4.3-3.65 5.8-9.05 5.8h-6zm64.447 16.2c.9 2.4 4.3 2.4 5.15 0l10.75-29.45c1.25-3.45-3.95-5.6-5.2-2.05l-8.15 22.9-8.15-22.9c-1.25-3.45-6.45-1.35-5.2 2.05l10.8 29.45zm27.9 1.75h19.4c1.55 0 2.8-1.25 2.8-2.8 0-1.55-1.25-2.9-2.8-2.8l-6.9.5v-24.8l6.9.5c1.55.1 2.8-1.25 2.8-2.8 0-1.55-1.25-2.8-2.8-2.8h-19.4c-1.55 0-2.8 1.25-2.8 2.8 0 1.55 1.25 2.9 2.8 2.8l6.9-.5v24.8l-6.9-.5c-1.55-.1-2.8 1.25-2.8 2.8 0 1.55 1.25 2.8 2.8 2.8zm43.653-35h-10.25c-1.5 0-2.7 1.2-2.7 2.7v29.6c0 1.5 1.2 2.7 2.7 2.7h10.25c9.55 0 14.5-6.95 14.5-17.5 0-10.4-4.65-17.5-14.5-17.5zm0 29.55h-7.5v-24.1h7.5c6.55 0 9.05 4.45 9.05 12.05 0 7.15-2.4 12.05-9.05 12.05zm26.75 5.45h19c1.55 0 2.8-1.25 2.8-2.8 0-1.55-1.25-2.8-2.8-2.8h-16.6v-9.1h11.75c1.55 0 2.8-1.25 2.8-2.8 0-1.55-1.25-2.8-2.8-2.8h-11.75v-9.1h16.6c1.55 0 2.8-1.25 2.8-2.8 0-1.55-1.25-2.8-2.8-2.8h-19c-1.75 0-3.2 1.4-3.2 3.15v28.7c0 1.75 1.45 3.15 3.2 3.15zm44.297 0c9.2 0 15-7.65 15-17.75 0-9.75-5.45-17.75-15-17.75-9.4 0-15.05 7.8-15.05 17.75 0 10 5.55 17.75 15.05 17.75zm0-5.6c-6.6 0-9.6-5.2-9.6-12.15 0-6.7 2.95-12.15 9.6-12.15 6.55 0 9.55 5.2 9.55 12.15 0 6.75-2.95 12.15-9.55 12.15zm34.252 5.85c7.2 0 13.65-3.6 13.65-10.35 0-7.9-5-9.65-12.75-10.35-5.35-.35-7.3-.7-7.3-4.3 0-3.75 3.3-5.05 7.05-5.05 2.25 0 5.7.55 7.05 2.5 2.2 3.25 6.25.35 4.95-2.3-1.8-3.95-7.35-5.65-12-5.65-7.2 0-12.5 3.95-12.5 10.5 0 7.45 4.8 9.2 12.35 9.75 6.15.45 7.7 1.1 7.7 4.9 0 3.55-4.4 4.9-8.2 4.9-2.5 0-5.75-.5-6.85-2.35-1.95-3.2-6.6-.85-5.05 2 2.5 4.4 6.95 5.8 11.9 5.8z"/>
</svg>